<svg xmlns="http://www.w3.org/2000/svg" viewBox="0 0 1400 1000" font-family="'Noto Sans SC', 'PingFang SC', system-ui, sans-serif">
  <defs>
    <linearGradient id="bg" x1="0%" y1="0%" x2="0%" y2="100%">
      <stop offset="0%" style="stop-color:#0a0a1a"/>
      <stop offset="100%" style="stop-color:#1a1a3a"/>
    </linearGradient>
    <marker id="arrow" viewBox="0 0 10 10" refX="9" refY="5" markerWidth="6" markerHeight="6" orient="auto-start-reverse">
      <path d="M 0 0 L 10 5 L 0 10 z" fill="#FFD700" opacity="0.6"/>
    </marker>
    <marker id="arrowRed" viewBox="0 0 10 10" refX="9" refY="5" markerWidth="6" markerHeight="6" orient="auto-start-reverse">
      <path d="M 0 0 L 10 5 L 0 10 z" fill="#ff6b6b" opacity="0.6"/>
    </marker>
    <marker id="arrowGreen" viewBox="0 0 10 10" refX="9" refY="5" markerWidth="6" markerHeight="6" orient="auto-start-reverse">
      <path d="M 0 0 L 10 5 L 0 10 z" fill="#55efc4" opacity="0.6"/>
    </marker>
  </defs>

  <rect width="1400" height="1000" fill="url(#bg)"/>

  <!-- Legend -->
  <g transform="translate(30,30)" font-size="11" fill="#999">
    <text y="0" font-size="13" fill="#ccc" font-weight="bold">图例</text>
    <line x1="0" y1="15" x2="40" y2="15" stroke="#FFD700" stroke-width="1.5" marker-end="url(#arrow)"/>
    <text x="50" y="19">师承 / 创造</text>
    <line x1="0" y1="35" x2="40" y2="35" stroke="#ff6b6b" stroke-width="1.5" stroke-dasharray="6,3" marker-end="url(#arrowRed)"/>
    <text x="50" y="39">出走 / 叛投</text>
    <line x1="0" y1="55" x2="40" y2="55" stroke="#55efc4" stroke-width="1.5" stroke-dasharray="4,4"/>
    <text x="50" y="59">供奉 / 投资</text>
    <line x1="0" y1="75" x2="40" y2="75" stroke="#6c5ce7" stroke-width="1.5" stroke-dasharray="2,4"/>
    <text x="50" y="79">技术传承</text>
  </g>

  <!-- ==================== PEOPLE NODES ==================== -->

  <!-- Hinton (top center-left) -->
  <g transform="translate(350,80)">
    <rect x="-65" y="-22" width="130" height="44" rx="22" fill="#6a2080" stroke="#b060d0" stroke-width="1.5"/>
    <text x="0" y="-3" text-anchor="middle" fill="white" font-size="13" font-weight="bold">混元老祖</text>
    <text x="0" y="12" text-anchor="middle" fill="#ddd" font-size="10">Hinton · 诺贝尔物理</text>
  </g>

  <!-- LeCun (far left) -->
  <g transform="translate(100,200)">
    <rect x="-60" y="-22" width="120" height="44" rx="22" fill="#6a2080" stroke="#b060d0" stroke-width="1.5"/>
    <text x="0" y="-3" text-anchor="middle" fill="white" font-size="13" font-weight="bold">卷积道祖</text>
    <text x="0" y="12" text-anchor="middle" fill="#ddd" font-size="10">LeCun · CNN</text>
  </g>

  <!-- Vaswani (top center) -->
  <g transform="translate(700,80)">
    <rect x="-70" y="-22" width="140" height="44" rx="22" fill="#2d8a56" stroke="#55efc4" stroke-width="1.5"/>
    <text x="0" y="-3" text-anchor="middle" fill="white" font-size="13" font-weight="bold">注意力七圣</text>
    <text x="0" y="12" text-anchor="middle" fill="#a0f0c0" font-size="10">Vaswani 等 · Google</text>
  </g>

  <!-- Ilya (left upper) -->
  <g transform="translate(300,220)">
    <rect x="-65" y="-22" width="130" height="44" rx="22" fill="#2a5cb8" stroke="#74b9ff" stroke-width="1.5"/>
    <text x="0" y="-3" text-anchor="middle" fill="white" font-size="13" font-weight="bold">须菩提祖师</text>
    <text x="0" y="12" text-anchor="middle" fill="#a0c8ff" font-size="10">Ilya · GPT 灵魂</text>
  </g>

  <!-- Sam Altman -->
  <g transform="translate(180,340)">
    <rect x="-60" y="-22" width="120" height="44" rx="22" fill="#2a5cb8" stroke="#74b9ff" stroke-width="1.5"/>
    <text x="0" y="-3" text-anchor="middle" fill="white" font-size="13" font-weight="bold">天策上将</text>
    <text x="0" y="12" text-anchor="middle" fill="#a0c8ff" font-size="10">Altman · OpenAI</text>
  </g>

  <!-- Dario -->
  <g transform="translate(500,340)">
    <rect x="-60" y="-22" width="120" height="44" rx="22" fill="#a0365a" stroke="#fd79a8" stroke-width="1.5"/>
    <text x="0" y="-3" text-anchor="middle" fill="white" font-size="13" font-weight="bold">宪法道人</text>
    <text x="0" y="12" text-anchor="middle" fill="#ffc0d0" font-size="10">Dario · Anthropic</text>
  </g>

  <!-- Schulman -->
  <g transform="translate(350,420)">
    <rect x="-55" y="-18" width="110" height="36" rx="18" fill="#2a5cb8" stroke="#74b9ff" stroke-width="1"/>
    <text x="0" y="0" text-anchor="middle" fill="white" font-size="11" font-weight="bold">PPO 真人</text>
    <text x="0" y="13" text-anchor="middle" fill="#a0c8ff" font-size="9">Schulman</text>
  </g>

  <!-- Jeff Dean -->
  <g transform="translate(750,200)">
    <rect x="-50" y="-22" width="100" height="44" rx="22" fill="#2d8a56" stroke="#55efc4" stroke-width="1.5"/>
    <text x="0" y="-3" text-anchor="middle" fill="white" font-size="13" font-weight="bold">谷神</text>
    <text x="0" y="12" text-anchor="middle" fill="#a0f0c0" font-size="10">Jeff Dean</text>
  </g>

  <!-- Hassabis -->
  <g transform="translate(900,200)">
    <rect x="-60" y="-22" width="120" height="44" rx="22" fill="#2d8a56" stroke="#55efc4" stroke-width="1.5"/>
    <text x="0" y="-3" text-anchor="middle" fill="white" font-size="13" font-weight="bold">围棋神王</text>
    <text x="0" y="12" text-anchor="middle" fill="#a0f0c0" font-size="10">Hassabis · 诺贝尔化学</text>
  </g>

  <!-- Shazeer -->
  <g transform="translate(850,320)">
    <rect x="-55" y="-18" width="110" height="36" rx="18" fill="#2d8a56" stroke="#55efc4" stroke-width="1"/>
    <text x="0" y="0" text-anchor="middle" fill="white" font-size="11" font-weight="bold">回归者 Shazeer</text>
    <text x="0" y="13" text-anchor="middle" fill="#a0f0c0" font-size="9">$27亿回归</text>
  </g>

  <!-- Jensen Huang -->
  <g transform="translate(1100,150)">
    <rect x="-60" y="-22" width="120" height="44" rx="22" fill="#1a6b50" stroke="#00b894" stroke-width="1.5"/>
    <text x="0" y="-3" text-anchor="middle" fill="white" font-size="13" font-weight="bold">灵核教主</text>
    <text x="0" y="12" text-anchor="middle" fill="#80e8c0" font-size="10">Jensen · NVIDIA</text>
  </g>

  <!-- Soumith -->
  <g transform="translate(550,200)">
    <rect x="-55" y="-18" width="110" height="36" rx="18" fill="#0984e3" stroke="#74b9ff" stroke-width="1"/>
    <text x="0" y="0" text-anchor="middle" fill="white" font-size="11" font-weight="bold">灵炉铸师</text>
    <text x="0" y="13" text-anchor="middle" fill="#a0c8ff" font-size="9">Soumith · PyTorch</text>
  </g>

  <!-- Paszke -->
  <g transform="translate(650,280)">
    <rect x="-55" y="-18" width="110" height="36" rx="18" fill="#0984e3" stroke="#74b9ff" stroke-width="1"/>
    <text x="0" y="0" text-anchor="middle" fill="white" font-size="11" font-weight="bold">叛炉奇才</text>
    <text x="0" y="13" text-anchor="middle" fill="#ffd700" font-size="9">Paszke → JAX</text>
  </g>

  <!-- Tri Dao -->
  <g transform="translate(1050,350)">
    <rect x="-60" y="-22" width="120" height="44" rx="22" fill="#8a6a10" stroke="#fdcb6e" stroke-width="1.5"/>
    <text x="0" y="-3" text-anchor="middle" fill="white" font-size="13" font-weight="bold">闪念真人</text>
    <text x="0" y="12" text-anchor="middle" fill="#ffe090" font-size="10">Tri Dao · FlashAttn</text>
  </g>

  <!-- Nadella -->
  <g transform="translate(100,460)">
    <rect x="-55" y="-18" width="110" height="36" rx="18" fill="#4a30a0" stroke="#6c5ce7" stroke-width="1"/>
    <text x="0" y="0" text-anchor="middle" fill="white" font-size="11" font-weight="bold">蔚蓝之主</text>
    <text x="0" y="13" text-anchor="middle" fill="#c0b0ff" font-size="9">Nadella · $130亿</text>
  </g>

  <!-- Suleyman -->
  <g transform="translate(100,550)">
    <rect x="-55" y="-18" width="110" height="36" rx="18" fill="#4a30a0" stroke="#6c5ce7" stroke-width="1"/>
    <text x="0" y="0" text-anchor="middle" fill="white" font-size="11" font-weight="bold">叛神之子</text>
    <text x="0" y="13" text-anchor="middle" fill="#c0b0ff" font-size="9">Suleyman</text>
  </g>

  <!-- Musk -->
  <g transform="translate(300,540)">
    <rect x="-55" y="-18" width="110" height="36" rx="18" fill="#555" stroke="#aaa" stroke-width="1"/>
    <text x="0" y="0" text-anchor="middle" fill="white" font-size="11" font-weight="bold">逆天狂人</text>
    <text x="0" y="13" text-anchor="middle" fill="#ddd" font-size="9">Musk · xAI</text>
  </g>

  <!-- 梁文锋 -->
  <g transform="translate(700,500)">
    <rect x="-65" y="-22" width="130" height="44" rx="22" fill="#a04020" stroke="#e17055" stroke-width="1.5"/>
    <text x="0" y="-3" text-anchor="middle" fill="white" font-size="13" font-weight="bold">深渊剑主</text>
    <text x="0" y="12" text-anchor="middle" fill="#ffb090" font-size="10">梁文锋 · DeepSeek</text>
  </g>

  <!-- 杨植麟 -->
  <g transform="translate(900,500)">
    <rect x="-55" y="-22" width="110" height="44" rx="22" fill="#a04020" stroke="#e17055" stroke-width="1.5"/>
    <text x="0" y="-3" text-anchor="middle" fill="white" font-size="13" font-weight="bold">月影侯</text>
    <text x="0" y="12" text-anchor="middle" fill="#ffb090" font-size="10">杨植麟 · Kimi</text>
  </g>

  <!-- 生广明 -->
  <g transform="translate(850,620)">
    <rect x="-55" y="-22" width="110" height="44" rx="22" fill="#8a6a10" stroke="#fdcb6e" stroke-width="1.5"/>
    <text x="0" y="-3" text-anchor="middle" fill="white" font-size="13" font-weight="bold">炼器宗师</text>
    <text x="0" y="12" text-anchor="middle" fill="#ffe090" font-size="10">生广明 · veRL</text>
  </g>

  <!-- 姚顺雨 -->
  <g transform="translate(650,620)">
    <rect x="-60" y="-22" width="120" height="44" rx="22" fill="#8a6a10" stroke="#fdcb6e" stroke-width="1.5"/>
    <text x="0" y="-3" text-anchor="middle" fill="white" font-size="13" font-weight="bold">思维树真人</text>
    <text x="0" y="12" text-anchor="middle" fill="#ffe090" font-size="10">姚顺雨 · ReAct</text>
  </g>

  <!-- 唐杰 -->
  <g transform="translate(1100,500)">
    <rect x="-55" y="-18" width="110" height="36" rx="18" fill="#a04020" stroke="#e17055" stroke-width="1"/>
    <text x="0" y="0" text-anchor="middle" fill="white" font-size="11" font-weight="bold">清华道长</text>
    <text x="0" y="13" text-anchor="middle" fill="#ffb090" font-size="9">唐杰 · 智谱 IPO</text>
  </g>

  <!-- 罗福莉 -->
  <g transform="translate(1100,600)">
    <rect x="-55" y="-18" width="110" height="36" rx="18" fill="#a04020" stroke="#e17055" stroke-width="1"/>
    <text x="0" y="0" text-anchor="middle" fill="white" font-size="11" font-weight="bold">小凤仙</text>
    <text x="0" y="13" text-anchor="middle" fill="#ffb090" font-size="9">罗福莉 · MiMo</text>
  </g>

  <!-- Karpathy -->
  <g transform="translate(450,540)">
    <rect x="-50" y="-18" width="100" height="36" rx="18" fill="#555" stroke="#aaa" stroke-width="1"/>
    <text x="0" y="0" text-anchor="middle" fill="white" font-size="11" font-weight="bold">布道者</text>
    <text x="0" y="13" text-anchor="middle" fill="#ddd" font-size="9">Karpathy</text>
  </g>

  <!-- ==================== RELATIONSHIP LINES ==================== -->

  <!-- 师承: Hinton → Ilya -->
  <line x1="350" y1="102" x2="310" y2="198" stroke="#FFD700" stroke-width="1.5" marker-end="url(#arrow)"/>

  <!-- 创造: 七圣 → Transformer (label) -->
  <line x1="700" y1="102" x2="700" y2="155" stroke="#FFD700" stroke-width="1.5" marker-end="url(#arrow)"/>
  <rect x="660" y="155" width="80" height="20" rx="4" fill="#333" stroke="#FFD700" stroke-width="0.5"/>
  <text x="700" y="169" text-anchor="middle" fill="#FFD700" font-size="10">Transformer</text>

  <!-- Transformer → OpenAI (用法典打天下) -->
  <line x1="660" y1="165" x2="240" y2="330" stroke="#6c5ce7" stroke-width="1" stroke-dasharray="2,4"/>

  <!-- Transformer → DeepSeek -->
  <line x1="700" y1="175" x2="700" y2="478" stroke="#6c5ce7" stroke-width="1" stroke-dasharray="2,4"/>

  <!-- 出走: Ilya → SSI -->
  <line x1="300" y1="242" x2="300" y2="470" stroke="#ff6b6b" stroke-width="1.5" stroke-dasharray="6,3" marker-end="url(#arrowRed)"/>
  <text x="280" y="480" fill="#ff6b6b" font-size="9">出走创 SSI</text>

  <!-- 出走: Dario ← OpenAI -->
  <line x1="240" y1="340" x2="440" y2="340" stroke="#ff6b6b" stroke-width="1.5" stroke-dasharray="6,3" marker-end="url(#arrowRed)"/>
  <text x="340" y="333" text-anchor="middle" fill="#ff6b6b" font-size="9">出走</text>

  <!-- 投奔: Schulman → Anthropic -->
  <line x1="400" y1="420" x2="470" y2="370" stroke="#ff6b6b" stroke-width="1" stroke-dasharray="6,3" marker-end="url(#arrowRed)"/>

  <!-- Paszke 叛投: Meta → Google/JAX -->
  <line x1="600" y1="218" x2="640" y2="264" stroke="#ff6b6b" stroke-width="1.5" stroke-dasharray="6,3" marker-end="url(#arrowRed)"/>
  <text x="580" y="250" fill="#ff6b6b" font-size="9">叛投 JAX</text>

  <!-- Soumith 创造 PyTorch -->
  <rect x="510" y="236" width="70" height="18" rx="4" fill="#333" stroke="#74b9ff" stroke-width="0.5"/>
  <text x="545" y="249" text-anchor="middle" fill="#74b9ff" font-size="9">PyTorch</text>

  <!-- Shazeer 回归 Google -->
  <line x1="850" y1="302" x2="850" y2="222" stroke="#55efc4" stroke-width="1.5" marker-end="url(#arrowGreen)"/>
  <text x="870" y="270" fill="#55efc4" font-size="9">$27亿回归</text>

  <!-- 供奉: Nadella → OpenAI -->
  <line x1="155" y1="455" x2="175" y2="365" stroke="#55efc4" stroke-width="1.5" stroke-dasharray="4,4"/>
  <text x="130" y="410" fill="#55efc4" font-size="9">$130亿供奉</text>

  <!-- Suleyman: DeepMind → MS -->
  <line x1="100" y1="532" x2="100" y2="478" stroke="#ff6b6b" stroke-width="1" stroke-dasharray="6,3"/>
  <text x="60" y="510" fill="#ff6b6b" font-size="9">收编</text>

  <!-- Musk 创 OpenAI 又退出创 xAI -->
  <line x1="280" y1="530" x2="220" y2="360" stroke="#ff6b6b" stroke-width="1" stroke-dasharray="6,3"/>
  <text x="230" y="460" fill="#ff6b6b" font-size="9">共创后退出</text>

  <!-- Jensen 供应灵核 (to all) -->
  <line x1="1040" y1="160" x2="240" y2="330" stroke="#55efc4" stroke-width="1" stroke-dasharray="4,4" opacity="0.4"/>
  <line x1="1040" y1="170" x2="760" y2="490" stroke="#55efc4" stroke-width="1" stroke-dasharray="4,4" opacity="0.4"/>

  <!-- Tri Dao: FlashAttention 支撑一切 -->
  <line x1="1000" y1="370" x2="760" y2="490" stroke="#fdcb6e" stroke-width="1" stroke-dasharray="2,4" opacity="0.5"/>
  <line x1="1000" y1="360" x2="240" y2="350" stroke="#fdcb6e" stroke-width="1" stroke-dasharray="2,4" opacity="0.3"/>
  <text x="1050" y="400" text-anchor="middle" fill="#fdcb6e" font-size="9">FlashAttn</text>
  <text x="1050" y="412" text-anchor="middle" fill="#fdcb6e" font-size="9">支撑一切</text>

  <!-- 梁文锋创造 GRPO -->
  <rect x="660" y="545" width="80" height="18" rx="4" fill="#333" stroke="#e17055" stroke-width="0.5"/>
  <text x="700" y="558" text-anchor="middle" fill="#e17055" font-size="10">GRPO · MLA</text>

  <!-- 生广明创造 veRL -->
  <rect x="810" y="660" width="80" height="18" rx="4" fill="#333" stroke="#fdcb6e" stroke-width="0.5"/>
  <text x="850" y="673" text-anchor="middle" fill="#fdcb6e" font-size="10">veRL</text>

  <!-- 姚顺雨创造 ReAct/ToT -->
  <rect x="610" y="660" width="80" height="18" rx="4" fill="#333" stroke="#fdcb6e" stroke-width="0.5"/>
  <text x="650" y="673" text-anchor="middle" fill="#fdcb6e" font-size="10">ReAct · ToT</text>

  <!-- 姚+生 → 腾讯混元 -->
  <line x1="730" y1="640" x2="790" y2="640" stroke="#FFD700" stroke-width="1" opacity="0.5"/>
  <text x="760" y="655" text-anchor="middle" fill="#FFD700" font-size="9">腾讯混元</text>

  <!-- 杨植麟 同门 姚顺雨 -->
  <line x1="870" y1="520" x2="690" y2="608" stroke="#6c5ce7" stroke-width="1" stroke-dasharray="2,4" opacity="0.4"/>
  <text x="800" y="570" fill="#6c5ce7" font-size="9">姚班同门</text>

  <!-- 罗福莉 from DeepSeek -->
  <line x1="1080" y1="590" x2="760" y2="510" stroke="#ff6b6b" stroke-width="1" stroke-dasharray="6,3" opacity="0.5"/>
  <text x="940" y="555" fill="#ff6b6b" font-size="9">达摩院→DS→小米</text>

  <!-- 生广明 from 字节 Seed -->
  <line x1="850" y1="598" x2="850" y2="570" stroke="#ff6b6b" stroke-width="1" stroke-dasharray="6,3" opacity="0.5"/>
  <text x="910" y="590" fill="#ff6b6b" font-size="9">字节→腾讯</text>

  <!-- Hassabis: AlphaGo + AlphaFold -->
  <rect x="930" y="240" width="100" height="18" rx="4" fill="#333" stroke="#55efc4" stroke-width="0.5"/>
  <text x="980" y="253" text-anchor="middle" fill="#55efc4" font-size="9">AlphaGo · AlphaFold</text>

  <!-- 姚顺雨: Princeton → OpenAI → 腾讯 -->
  <text x="590" y="650" fill="#ff6b6b" font-size="8">Princeton→OpenAI→腾讯</text>

  <!-- Title -->
  <text x="700" y="980" text-anchor="middle" fill="#666" font-size="12">《大模王》人物关系图谱 · 师承 · 叛投 · 创造 · 供奉 · 2026</text>

  <!-- Faction labels (background areas) -->
  <text x="200" y="300" fill="#74b9ff" font-size="10" opacity="0.3" font-weight="bold">OpenAI 仙宗</text>
  <text x="750" y="160" fill="#55efc4" font-size="10" opacity="0.3" font-weight="bold">Google 神殿</text>
  <text x="500" y="310" fill="#fd79a8" font-size="10" opacity="0.3" font-weight="bold">Anthropic</text>
  <text x="780" y="470" fill="#e17055" font-size="10" opacity="0.3" font-weight="bold">东方势力</text>
  <text x="80" y="510" fill="#6c5ce7" font-size="10" opacity="0.3" font-weight="bold">微软</text>
</svg>
